<mxfile host="65bd71144e" pages="5">
    <diagram name="LO01_LO" id="vaG0hLY4OaV0uLAfgkjR">
        <mxGraphModel dx="1272" dy="938" grid="1" gridSize="10" guides="1" tooltips="1" connect="1" arrows="1" fold="1" page="1" pageScale="1" pageWidth="827" pageHeight="1169" math="0" shadow="0">
            <root>
                <mxCell id="0"/>
                <mxCell id="1" parent="0"/>
                <mxCell id="JbOMMCVJrrg1IjXkszxi-1" style="edgeStyle=orthogonalEdgeStyle;rounded=0;orthogonalLoop=1;jettySize=auto;html=1;endArrow=none;endFill=0;" edge="1" parent="1">
                    <mxGeometry relative="1" as="geometry">
                        <mxPoint x="240" y="627" as="targetPoint"/>
                        <mxPoint x="240" y="157" as="sourcePoint"/>
                        <Array as="points">
                            <mxPoint x="240" y="627"/>
                        </Array>
                    </mxGeometry>
                </mxCell>
                <mxCell id="JbOMMCVJrrg1IjXkszxi-2" value="Actor" style="shape=umlActor;verticalLabelPosition=bottom;verticalAlign=top;html=1;outlineConnect=0;" vertex="1" parent="1">
                    <mxGeometry x="225" y="70" width="30" height="60" as="geometry"/>
                </mxCell>
                <mxCell id="JbOMMCVJrrg1IjXkszxi-3" style="edgeStyle=orthogonalEdgeStyle;rounded=0;orthogonalLoop=1;jettySize=auto;html=1;endArrow=none;endFill=0;" edge="1" parent="1">
                    <mxGeometry relative="1" as="geometry">
                        <mxPoint x="440.44444444444434" y="638" as="targetPoint"/>
                        <mxPoint x="440" y="158" as="sourcePoint"/>
                    </mxGeometry>
                </mxCell>
                <mxCell id="JbOMMCVJrrg1IjXkszxi-4" value="Login&lt;br&gt;&amp;lt;Component&amp;gt;" style="rounded=0;whiteSpace=wrap;html=1;fillColor=#ffe6cc;strokeColor=#d79b00;" vertex="1" parent="1">
                    <mxGeometry x="385" y="87" width="120" height="43" as="geometry"/>
                </mxCell>
                <mxCell id="JbOMMCVJrrg1IjXkszxi-5" style="edgeStyle=orthogonalEdgeStyle;rounded=0;orthogonalLoop=1;jettySize=auto;html=1;endArrow=none;endFill=0;" edge="1" parent="1" source="JbOMMCVJrrg1IjXkszxi-14">
                    <mxGeometry relative="1" as="geometry">
                        <mxPoint x="855.4444444444443" y="638" as="targetPoint"/>
                        <mxPoint x="855" y="158" as="sourcePoint"/>
                    </mxGeometry>
                </mxCell>
                <mxCell id="JbOMMCVJrrg1IjXkszxi-6" value="Login&lt;br&gt;&amp;lt;CONTROLLER&amp;gt;" style="rounded=0;whiteSpace=wrap;html=1;fillColor=#dae8fc;strokeColor=#6c8ebf;" vertex="1" parent="1">
                    <mxGeometry x="800" y="87" width="120" height="43" as="geometry"/>
                </mxCell>
                <mxCell id="JbOMMCVJrrg1IjXkszxi-7" style="edgeStyle=orthogonalEdgeStyle;rounded=0;orthogonalLoop=1;jettySize=auto;html=1;endArrow=none;endFill=0;" edge="1" parent="1">
                    <mxGeometry relative="1" as="geometry">
                        <mxPoint x="1055" y="638" as="targetPoint"/>
                        <mxPoint x="1055" y="158" as="sourcePoint"/>
                    </mxGeometry>
                </mxCell>
                <mxCell id="JbOMMCVJrrg1IjXkszxi-8" value="Login&lt;br&gt;&amp;lt;SERVICE&amp;gt;" style="rounded=0;whiteSpace=wrap;html=1;fillColor=#dae8fc;strokeColor=#6c8ebf;" vertex="1" parent="1">
                    <mxGeometry x="1000" y="87" width="120" height="43" as="geometry"/>
                </mxCell>
                <mxCell id="JbOMMCVJrrg1IjXkszxi-9" style="edgeStyle=orthogonalEdgeStyle;rounded=0;orthogonalLoop=1;jettySize=auto;html=1;endArrow=none;endFill=0;" edge="1" parent="1" source="JbOMMCVJrrg1IjXkszxi-17">
                    <mxGeometry relative="1" as="geometry">
                        <mxPoint x="1222.111111111111" y="638" as="targetPoint"/>
                        <mxPoint x="1222" y="158" as="sourcePoint"/>
                    </mxGeometry>
                </mxCell>
                <mxCell id="JbOMMCVJrrg1IjXkszxi-10" value="DB" style="shape=cylinder3;whiteSpace=wrap;html=1;boundedLbl=1;backgroundOutline=1;size=15;" vertex="1" parent="1">
                    <mxGeometry x="1203" y="82" width="48" height="50" as="geometry"/>
                </mxCell>
                <mxCell id="JbOMMCVJrrg1IjXkszxi-11" value="" style="rounded=0;whiteSpace=wrap;html=1;" vertex="1" parent="1">
                    <mxGeometry x="235" y="177" width="10" height="410" as="geometry"/>
                </mxCell>
                <mxCell id="JbOMMCVJrrg1IjXkszxi-12" value="" style="rounded=0;whiteSpace=wrap;html=1;" vertex="1" parent="1">
                    <mxGeometry x="435" y="188" width="10" height="410" as="geometry"/>
                </mxCell>
                <mxCell id="JbOMMCVJrrg1IjXkszxi-13" value="" style="edgeStyle=orthogonalEdgeStyle;rounded=0;orthogonalLoop=1;jettySize=auto;html=1;endArrow=none;endFill=0;" edge="1" parent="1" target="JbOMMCVJrrg1IjXkszxi-14">
                    <mxGeometry relative="1" as="geometry">
                        <mxPoint x="855.4444444444443" y="638" as="targetPoint"/>
                        <mxPoint x="855" y="158" as="sourcePoint"/>
                    </mxGeometry>
                </mxCell>
                <mxCell id="JbOMMCVJrrg1IjXkszxi-14" value="" style="rounded=0;whiteSpace=wrap;html=1;" vertex="1" parent="1">
                    <mxGeometry x="850" y="188" width="10" height="410" as="geometry"/>
                </mxCell>
                <mxCell id="JbOMMCVJrrg1IjXkszxi-15" value="" style="rounded=0;whiteSpace=wrap;html=1;" vertex="1" parent="1">
                    <mxGeometry x="1050" y="188" width="10" height="410" as="geometry"/>
                </mxCell>
                <mxCell id="JbOMMCVJrrg1IjXkszxi-16" value="" style="edgeStyle=orthogonalEdgeStyle;rounded=0;orthogonalLoop=1;jettySize=auto;html=1;endArrow=none;endFill=0;" edge="1" parent="1" target="JbOMMCVJrrg1IjXkszxi-17">
                    <mxGeometry relative="1" as="geometry">
                        <mxPoint x="1222.111111111111" y="638" as="targetPoint"/>
                        <mxPoint x="1222" y="158" as="sourcePoint"/>
                        <Array as="points">
                            <mxPoint x="1222" y="170"/>
                            <mxPoint x="1222" y="170"/>
                        </Array>
                    </mxGeometry>
                </mxCell>
                <mxCell id="JbOMMCVJrrg1IjXkszxi-17" value="" style="rounded=0;whiteSpace=wrap;html=1;" vertex="1" parent="1">
                    <mxGeometry x="1217" y="188" width="10" height="410" as="geometry"/>
                </mxCell>
                <mxCell id="JbOMMCVJrrg1IjXkszxi-18" style="edgeStyle=orthogonalEdgeStyle;rounded=0;orthogonalLoop=1;jettySize=auto;html=1;endArrow=none;endFill=0;" edge="1" parent="1" source="JbOMMCVJrrg1IjXkszxi-21">
                    <mxGeometry relative="1" as="geometry">
                        <mxPoint x="655.4444444444443" y="638" as="targetPoint"/>
                        <mxPoint x="655" y="158" as="sourcePoint"/>
                    </mxGeometry>
                </mxCell>
                <mxCell id="JbOMMCVJrrg1IjXkszxi-19" value="User Session&lt;br&gt;&amp;lt;Store&amp;gt;" style="rounded=0;whiteSpace=wrap;html=1;fillColor=#f8cecc;strokeColor=#b85450;" vertex="1" parent="1">
                    <mxGeometry x="600" y="87" width="120" height="43" as="geometry"/>
                </mxCell>
                <mxCell id="JbOMMCVJrrg1IjXkszxi-20" value="" style="edgeStyle=orthogonalEdgeStyle;rounded=0;orthogonalLoop=1;jettySize=auto;html=1;endArrow=none;endFill=0;" edge="1" parent="1" target="JbOMMCVJrrg1IjXkszxi-21">
                    <mxGeometry relative="1" as="geometry">
                        <mxPoint x="655.4444444444443" y="638" as="targetPoint"/>
                        <mxPoint x="655" y="158" as="sourcePoint"/>
                    </mxGeometry>
                </mxCell>
                <mxCell id="JbOMMCVJrrg1IjXkszxi-21" value="" style="rounded=0;whiteSpace=wrap;html=1;" vertex="1" parent="1">
                    <mxGeometry x="650" y="188" width="10" height="410" as="geometry"/>
                </mxCell>
                <mxCell id="JbOMMCVJrrg1IjXkszxi-22" value="" style="endArrow=classic;html=1;rounded=0;entryX=-0.343;entryY=0.093;entryDx=0;entryDy=0;entryPerimeter=0;" edge="1" parent="1" target="JbOMMCVJrrg1IjXkszxi-12">
                    <mxGeometry width="50" height="50" relative="1" as="geometry">
                        <mxPoint x="245" y="227" as="sourcePoint"/>
                        <mxPoint x="295" y="177" as="targetPoint"/>
                    </mxGeometry>
                </mxCell>
                <mxCell id="JbOMMCVJrrg1IjXkszxi-23" value="" style="endArrow=classic;html=1;rounded=0;" edge="1" parent="1">
                    <mxGeometry width="50" height="50" relative="1" as="geometry">
                        <mxPoint x="447" y="310" as="sourcePoint"/>
                        <mxPoint x="850" y="310" as="targetPoint"/>
                    </mxGeometry>
                </mxCell>
                <mxCell id="JbOMMCVJrrg1IjXkszxi-24" value="" style="endArrow=classic;html=1;rounded=0;" edge="1" parent="1">
                    <mxGeometry width="50" height="50" relative="1" as="geometry">
                        <mxPoint x="860" y="340" as="sourcePoint"/>
                        <mxPoint x="1050" y="340" as="targetPoint"/>
                    </mxGeometry>
                </mxCell>
                <mxCell id="JbOMMCVJrrg1IjXkszxi-25" value="" style="endArrow=classic;html=1;rounded=0;entryX=-0.208;entryY=0.468;entryDx=0;entryDy=0;entryPerimeter=0;" edge="1" parent="1" target="JbOMMCVJrrg1IjXkszxi-17">
                    <mxGeometry width="50" height="50" relative="1" as="geometry">
                        <mxPoint x="1061" y="380" as="sourcePoint"/>
                        <mxPoint x="1210" y="380" as="targetPoint"/>
                    </mxGeometry>
                </mxCell>
                <mxCell id="JbOMMCVJrrg1IjXkszxi-26" value="" style="endArrow=classic;html=1;rounded=0;exitX=-0.263;exitY=0.566;exitDx=0;exitDy=0;exitPerimeter=0;dashed=1;" edge="1" parent="1" source="JbOMMCVJrrg1IjXkszxi-17">
                    <mxGeometry width="50" height="50" relative="1" as="geometry">
                        <mxPoint x="1020" y="480" as="sourcePoint"/>
                        <mxPoint x="1062" y="420" as="targetPoint"/>
                    </mxGeometry>
                </mxCell>
                <mxCell id="JbOMMCVJrrg1IjXkszxi-27" value="" style="endArrow=classic;html=1;rounded=0;exitX=0.021;exitY=0.637;exitDx=0;exitDy=0;exitPerimeter=0;entryX=1.228;entryY=0.567;entryDx=0;entryDy=0;entryPerimeter=0;dashed=1;" edge="1" parent="1">
                    <mxGeometry width="50" height="50" relative="1" as="geometry">
                        <mxPoint x="1050.21" y="459.1700000000001" as="sourcePoint"/>
                        <mxPoint x="860" y="460" as="targetPoint"/>
                    </mxGeometry>
                </mxCell>
                <mxCell id="JbOMMCVJrrg1IjXkszxi-28" value="" style="endArrow=classic;html=1;rounded=0;exitX=0.021;exitY=0.637;exitDx=0;exitDy=0;exitPerimeter=0;entryX=1.228;entryY=0.567;entryDx=0;entryDy=0;entryPerimeter=0;dashed=1;" edge="1" parent="1">
                    <mxGeometry width="50" height="50" relative="1" as="geometry">
                        <mxPoint x="850" y="490" as="sourcePoint"/>
                        <mxPoint x="659.79" y="490.8299999999999" as="targetPoint"/>
                    </mxGeometry>
                </mxCell>
                <mxCell id="JbOMMCVJrrg1IjXkszxi-29" value="" style="endArrow=classic;html=1;rounded=0;exitX=0.021;exitY=0.637;exitDx=0;exitDy=0;exitPerimeter=0;dashed=1;" edge="1" parent="1">
                    <mxGeometry width="50" height="50" relative="1" as="geometry">
                        <mxPoint x="650" y="530" as="sourcePoint"/>
                        <mxPoint x="450" y="530" as="targetPoint"/>
                    </mxGeometry>
                </mxCell>
                <mxCell id="JbOMMCVJrrg1IjXkszxi-30" value="" style="endArrow=classic;html=1;rounded=0;exitX=0.021;exitY=0.637;exitDx=0;exitDy=0;exitPerimeter=0;dashed=1;entryX=0.996;entryY=0.93;entryDx=0;entryDy=0;entryPerimeter=0;" edge="1" parent="1" target="JbOMMCVJrrg1IjXkszxi-11">
                    <mxGeometry width="50" height="50" relative="1" as="geometry">
                        <mxPoint x="435" y="560" as="sourcePoint"/>
                        <mxPoint x="235" y="560" as="targetPoint"/>
                    </mxGeometry>
                </mxCell>
                <mxCell id="JbOMMCVJrrg1IjXkszxi-31" value="1. 로그인 을 한다." style="text;html=1;align=left;verticalAlign=middle;whiteSpace=wrap;rounded=0;" vertex="1" parent="1">
                    <mxGeometry x="247" y="199" width="93" height="30" as="geometry"/>
                </mxCell>
                <mxCell id="JbOMMCVJrrg1IjXkszxi-32" value="1. 로그인을 요청한다." style="text;html=1;align=left;verticalAlign=middle;whiteSpace=wrap;rounded=0;" vertex="1" parent="1">
                    <mxGeometry x="450" y="280" width="130" height="30" as="geometry"/>
                </mxCell>
                <mxCell id="JbOMMCVJrrg1IjXkszxi-33" value="List" style="swimlane;fontStyle=0;childLayout=stackLayout;horizontal=1;startSize=30;horizontalStack=0;resizeParent=1;resizeParentMax=0;resizeLast=0;collapsible=1;marginBottom=0;whiteSpace=wrap;html=1;" vertex="1" parent="1">
                    <mxGeometry x="1070" y="240" width="140" height="120" as="geometry"/>
                </mxCell>
                <mxCell id="JbOMMCVJrrg1IjXkszxi-34" value="Item 1" style="text;strokeColor=none;fillColor=none;align=left;verticalAlign=middle;spacingLeft=4;spacingRight=4;overflow=hidden;points=[[0,0.5],[1,0.5]];portConstraint=eastwest;rotatable=0;whiteSpace=wrap;html=1;" vertex="1" parent="JbOMMCVJrrg1IjXkszxi-33">
                    <mxGeometry y="30" width="140" height="30" as="geometry"/>
                </mxCell>
                <mxCell id="JbOMMCVJrrg1IjXkszxi-35" value="Item 2" style="text;strokeColor=none;fillColor=none;align=left;verticalAlign=middle;spacingLeft=4;spacingRight=4;overflow=hidden;points=[[0,0.5],[1,0.5]];portConstraint=eastwest;rotatable=0;whiteSpace=wrap;html=1;" vertex="1" parent="JbOMMCVJrrg1IjXkszxi-33">
                    <mxGeometry y="60" width="140" height="30" as="geometry"/>
                </mxCell>
                <mxCell id="JbOMMCVJrrg1IjXkszxi-36" value="Item 3" style="text;strokeColor=none;fillColor=none;align=left;verticalAlign=middle;spacingLeft=4;spacingRight=4;overflow=hidden;points=[[0,0.5],[1,0.5]];portConstraint=eastwest;rotatable=0;whiteSpace=wrap;html=1;" vertex="1" parent="JbOMMCVJrrg1IjXkszxi-33">
                    <mxGeometry y="90" width="140" height="30" as="geometry"/>
                </mxCell>
                <mxCell id="JbOMMCVJrrg1IjXkszxi-37" value="Item 3" style="text;strokeColor=none;fillColor=none;align=left;verticalAlign=middle;spacingLeft=4;spacingRight=4;overflow=hidden;points=[[0,0.5],[1,0.5]];portConstraint=eastwest;rotatable=0;whiteSpace=wrap;html=1;" vertex="1" parent="1">
                    <mxGeometry x="1170" y="340" width="140" height="30" as="geometry"/>
                </mxCell>
                <mxCell id="JbOMMCVJrrg1IjXkszxi-38" value="List" style="swimlane;fontStyle=0;childLayout=stackLayout;horizontal=1;startSize=30;horizontalStack=0;resizeParent=1;resizeParentMax=0;resizeLast=0;collapsible=1;marginBottom=0;whiteSpace=wrap;html=1;" vertex="1" parent="1">
                    <mxGeometry x="1070" y="440" width="140" height="120" as="geometry"/>
                </mxCell>
                <mxCell id="JbOMMCVJrrg1IjXkszxi-39" value="Item 1" style="text;strokeColor=none;fillColor=none;align=left;verticalAlign=middle;spacingLeft=4;spacingRight=4;overflow=hidden;points=[[0,0.5],[1,0.5]];portConstraint=eastwest;rotatable=0;whiteSpace=wrap;html=1;" vertex="1" parent="JbOMMCVJrrg1IjXkszxi-38">
                    <mxGeometry y="30" width="140" height="30" as="geometry"/>
                </mxCell>
                <mxCell id="JbOMMCVJrrg1IjXkszxi-40" value="Item 2" style="text;strokeColor=none;fillColor=none;align=left;verticalAlign=middle;spacingLeft=4;spacingRight=4;overflow=hidden;points=[[0,0.5],[1,0.5]];portConstraint=eastwest;rotatable=0;whiteSpace=wrap;html=1;" vertex="1" parent="JbOMMCVJrrg1IjXkszxi-38">
                    <mxGeometry y="60" width="140" height="30" as="geometry"/>
                </mxCell>
                <mxCell id="JbOMMCVJrrg1IjXkszxi-41" value="Item 3" style="text;strokeColor=none;fillColor=none;align=left;verticalAlign=middle;spacingLeft=4;spacingRight=4;overflow=hidden;points=[[0,0.5],[1,0.5]];portConstraint=eastwest;rotatable=0;whiteSpace=wrap;html=1;" vertex="1" parent="JbOMMCVJrrg1IjXkszxi-38">
                    <mxGeometry y="90" width="140" height="30" as="geometry"/>
                </mxCell>
                <mxCell id="JbOMMCVJrrg1IjXkszxi-42" value="response 200 OK" style="text;html=1;align=left;verticalAlign=middle;whiteSpace=wrap;rounded=0;" vertex="1" parent="1">
                    <mxGeometry x="450" y="500" width="130" height="30" as="geometry"/>
                </mxCell>
                <mxCell id="JbOMMCVJrrg1IjXkszxi-43" value="userId,&lt;div&gt;jname,&lt;/div&gt;&lt;div&gt;role&lt;/div&gt;" style="rounded=1;whiteSpace=wrap;html=1;" vertex="1" parent="1">
                    <mxGeometry x="670" y="410" width="120" height="60" as="geometry"/>
                </mxCell>
                <mxCell id="JbOMMCVJrrg1IjXkszxi-44" value="Note" style="shape=note;size=20;whiteSpace=wrap;html=1;fillColor=#fff2cc;strokeColor=#d6b656;" vertex="1" parent="1">
                    <mxGeometry x="670" y="300" width="100" height="100" as="geometry"/>
                </mxCell>
                <mxCell id="JbOMMCVJrrg1IjXkszxi-45" value="" style="html=1;points=[[0,0,0,0,5],[0,1,0,0,-5],[1,0,0,0,5],[1,1,0,0,-5]];perimeter=orthogonalPerimeter;outlineConnect=0;targetShapes=umlLifeline;portConstraint=eastwest;newEdgeStyle={&quot;curved&quot;:0,&quot;rounded&quot;:0};" vertex="1" parent="1">
                    <mxGeometry x="445" y="372" width="10" height="40" as="geometry"/>
                </mxCell>
                <mxCell id="JbOMMCVJrrg1IjXkszxi-46" value="화면 이동을 요청" style="html=1;align=left;spacingLeft=2;endArrow=block;rounded=0;edgeStyle=orthogonalEdgeStyle;curved=0;rounded=0;" edge="1" parent="1" target="JbOMMCVJrrg1IjXkszxi-45">
                    <mxGeometry x="-0.0033" relative="1" as="geometry">
                        <mxPoint x="450" y="352" as="sourcePoint"/>
                        <Array as="points">
                            <mxPoint x="480" y="382"/>
                        </Array>
                        <mxPoint as="offset"/>
                    </mxGeometry>
                </mxCell>
            </root>
        </mxGraphModel>
    </diagram>
</mxfile>